<?xml version="1.0" encoding="UTF-8"?><svg id="Accommodation" xmlns="http://www.w3.org/2000/svg" viewBox="0 0 559.52 72.81"><defs><style>.cls-1{fill:#fff;}</style></defs><path class="cls-1" d="M72.87,.06h-17.62l-10.25,10.34V63.45l9.35,9.3h18.88l9.71-9.3v-24.97h-16v18.59c0,1.56-1.25,2.83-2.79,2.83s-2.79-1.26-2.79-2.83V16.33c0-1.56,1.25-2.83,2.79-2.83s2.79,1.26,2.79,2.83v16.82h16V10.59L72.87,.06Z"/><path class="cls-1" d="M115.83,.06h-17.62l-10.25,10.34V63.45l9.35,9.3h18.88l9.71-9.3v-24.97h-16v18.59c0,1.56-1.25,2.83-2.79,2.83s-2.79-1.26-2.79-2.83V16.33c0-1.56,1.25-2.83,2.79-2.83s2.79,1.26,2.79,2.83v16.82h16V10.59L115.83,.06Z"/><path class="cls-1" d="M158.53,.06h-18.16l-10.07,9.62v9.03l5.75,3.15-5.75,3.54v7.23l6.47,3.96-6.47,3.45v6.87l6.29,3.61-6.29,3.25v9.58l10.07,9.03h18.34l10.25-9.4V10.41L158.53,.06Zm-6.11,56.43c0,1.54-1.25,2.79-2.79,2.79s-2.79-1.25-2.79-2.79V16.31c0-1.54,1.25-2.79,2.79-2.79s2.79,1.25,2.79,2.79V56.49Z"/><path class="cls-1" d="M314.64,.06h-18.16l-10.07,9.62v9.03l5.75,3.15-5.75,3.54v7.23l6.47,3.96-6.47,3.45v6.87l6.29,3.61-6.29,3.25v9.58l10.07,9.03h18.34l10.25-9.4V10.41L314.64,.06Zm-6.11,56.43c0,1.54-1.25,2.79-2.79,2.79s-2.79-1.25-2.79-2.79V16.31c0-1.54,1.25-2.79,2.79-2.79s2.79,1.25,2.79,2.79V56.49Z"/><path class="cls-1" d="M506.28,.06h-18.16l-10.07,9.62V63.35l10.07,9.03h18.34l10.25-9.4V10.41L506.28,.06Zm-6.11,56.43c0,1.54-1.25,2.79-2.79,2.79s-2.79-1.25-2.79-2.79V16.31c0-1.54,1.25-2.79,2.79-2.79s2.79,1.25,2.79,2.79V56.49Z"/><path class="cls-1" d="M173.9,.06V72.75h15.1V36.22l6.47,36.16h7.82l6.74-36.16v36.16l15.37,.37V.06h-21.57l-4.47,31.05c-.01,.06-.1,.06-.11,0L195.47,.06h-21.57Z"/><path class="cls-1" d="M230.16,.06V72.75h15.1V36.22l6.47,36.16h7.82l6.74-36.16v36.16l15.37,.37V.06h-21.57l-4.47,31.05c-.01,.06-.1,.06-.11,0L251.73,.06h-21.57Z"/><path class="cls-1" d="M412.55,72.81L403.92,0h-24.54l-8.63,72.81h15.64l1.62-11.6h7.55v11.6h16.99Zm-23.73-25.44l3.28-27.24,2.38,27.24h-5.66Z"/><path class="cls-1" d="M358.89,0h-28.85V72.38l28.04,.43,10.79-9.87V10.08l-9.98-10.08Zm-6.65,55.34c0,2.08-1.68,3.76-3.76,3.76h-1.81V13.35h1.81c2.08,0,3.76,1.68,3.76,3.76V55.34Z"/><polygon class="cls-1" points="415.07 0 415.07 13.53 424.78 13.53 424.78 31.93 431.07 35.16 425.13 38.76 425.16 46.13 431.07 49.19 425.1 52.94 425.1 61.37 431.07 63.75 425.31 67.16 425.31 72.38 441.85 72.38 441.85 13.53 451.74 13.53 451.74 .06 415.07 0"/><rect class="cls-1" x="456.37" y=".06" width="15.91" height="72.32"/><polygon class="cls-1" points="521.49 .06 521.49 6.17 527.43 9.54 521.49 12.51 521.49 20.33 527.43 23.84 521.49 27.07 521.49 34.89 527.43 37.72 521.49 41.1 521.49 72.38 536.6 72.38 536.6 41.1 545.63 72.38 559.52 72.38 559.52 .06 544.28 .06 544.29 27.1 537 .06 521.49 .06"/><path class="cls-1" d="M41.93,72.43L32.76,.38H8.63l-.9,6.17,5.99,3.13-6.57,3.08-.95,7.89,5.76,2.51-6.48,3.48-.98,8.17,5.34,2.42-6.03,3.29L0,72.43H16.31v-11.6h9.03v11.6h16.58Zm-23.8-24.81l2.7-26.97,2.97,26.97h-5.66Z"/></svg>