<svg width="30" height="30" viewBox="0 0 30 30" fill="none" xmlns="http://www.w3.org/2000/svg">
<path d="M8.33333 18C7.86111 18 7.465 17.856 7.145 17.568C6.82611 17.281 6.66667 16.925 6.66667 16.5C6.66667 16.075 6.82611 15.7185 7.145 15.4305C7.465 15.1435 7.86111 15 8.33333 15C8.80556 15 9.20167 15.1435 9.52167 15.4305C9.84056 15.7185 10 16.075 10 16.5C10 16.925 9.84056 17.281 9.52167 17.568C9.20167 17.856 8.80556 18 8.33333 18ZM15 18C14.5278 18 14.1322 17.856 13.8133 17.568C13.4933 17.281 13.3333 16.925 13.3333 16.5C13.3333 16.075 13.4933 15.7185 13.8133 15.4305C14.1322 15.1435 14.5278 15 15 15C15.4722 15 15.8683 15.1435 16.1883 15.4305C16.5072 15.7185 16.6667 16.075 16.6667 16.5C16.6667 16.925 16.5072 17.281 16.1883 17.568C15.8683 17.856 15.4722 18 15 18ZM21.6667 18C21.1944 18 20.7989 17.856 20.48 17.568C20.16 17.281 20 16.925 20 16.5C20 16.075 20.16 15.7185 20.48 15.4305C20.7989 15.1435 21.1944 15 21.6667 15C22.1389 15 22.5344 15.1435 22.8533 15.4305C23.1733 15.7185 23.3333 16.075 23.3333 16.5C23.3333 16.925 23.1733 17.281 22.8533 17.568C22.5344 17.856 22.1389 18 21.6667 18ZM3.33333 30C2.41667 30 1.63167 29.7065 0.978333 29.1195C0.326111 28.5315 0 27.825 0 27V6C0 5.175 0.326111 4.469 0.978333 3.882C1.63167 3.294 2.41667 3 3.33333 3H5V0H8.33333V3H21.6667V0H25V3H26.6667C27.5833 3 28.3683 3.294 29.0217 3.882C29.6739 4.469 30 5.175 30 6V27C30 27.825 29.6739 28.5315 29.0217 29.1195C28.3683 29.7065 27.5833 30 26.6667 30H3.33333ZM3.33333 27H26.6667V12H3.33333V27Z" fill="#171717"/>
</svg>
