<svg width="25" height="23" viewBox="0 0 25 23" fill="none" xmlns="http://www.w3.org/2000/svg">
<path d="M19.5122 4.6C18.8415 4.6 18.2671 4.3746 17.789 3.9238C17.3118 3.47377 17.0732 2.9325 17.0732 2.3C17.0732 1.6675 17.3118 1.12585 17.789 0.67505C18.2671 0.225017 18.8415 0 19.5122 0C20.1829 0 20.7573 0.225017 21.2354 0.67505C21.7126 1.12585 21.9512 1.6675 21.9512 2.3C21.9512 2.9325 21.7126 3.47377 21.2354 3.9238C20.7573 4.3746 20.1829 4.6 19.5122 4.6ZM18.2927 23V13.8C18.2927 13.0333 18.0846 12.3433 17.6683 11.73C17.2512 11.1167 16.7175 10.6375 16.0671 10.2925L17.1341 7.33125C17.2967 6.85208 17.5967 6.46875 18.0341 6.18125C18.4707 5.89375 18.9634 5.75 19.5122 5.75C20.061 5.75 20.5537 5.89375 20.9902 6.18125C21.4276 6.46875 21.7276 6.85208 21.8902 7.33125L25 16.1H21.9512V23H18.2927ZM12.8049 10.925C12.2967 10.925 11.865 10.7571 11.5098 10.4213C11.1537 10.0863 10.9756 9.67917 10.9756 9.2C10.9756 8.72083 11.1537 8.31373 11.5098 7.9787C11.865 7.6429 12.2967 7.475 12.8049 7.475C13.313 7.475 13.7447 7.6429 14.1 7.9787C14.4561 8.31373 14.6341 8.72083 14.6341 9.2C14.6341 9.67917 14.4561 10.0863 14.1 10.4213C13.7447 10.7571 13.313 10.925 12.8049 10.925ZM4.26829 4.6C3.59756 4.6 3.02358 4.3746 2.54634 3.9238C2.06829 3.47377 1.82927 2.9325 1.82927 2.3C1.82927 1.6675 2.06829 1.12585 2.54634 0.67505C3.02358 0.225017 3.59756 0 4.26829 0C4.93902 0 5.51301 0.225017 5.99024 0.67505C6.46829 1.12585 6.70732 1.6675 6.70732 2.3C6.70732 2.9325 6.46829 3.47377 5.99024 3.9238C5.51301 4.3746 4.93902 4.6 4.26829 4.6ZM1.82927 23V14.95H0V8.05C0 7.4175 0.239024 6.87585 0.717073 6.42505C1.19431 5.97502 1.76829 5.75 2.43902 5.75H6.09756C6.76829 5.75 7.34228 5.97502 7.81951 6.42505C8.29756 6.87585 8.53659 7.4175 8.53659 8.05V14.95H6.70732V23H1.82927ZM10.9756 23V18.4H9.7561V13.8C9.7561 13.3208 9.93415 12.9137 10.2902 12.5787C10.6455 12.2429 11.0772 12.075 11.5854 12.075H14.0244C14.5325 12.075 14.9642 12.2429 15.3195 12.5787C15.6756 12.9137 15.8537 13.3208 15.8537 13.8V18.4H14.6341V23H10.9756Z" fill="#F5F5F5"/>
</svg>
