<svg width="25" height="25" viewBox="0 0 25 25" fill="none" xmlns="http://www.w3.org/2000/svg">
<path d="M13.2812 1.17188C13.2812 0.522461 12.7588 0 12.1094 0C11.46 0 10.9375 0.522461 10.9375 1.17188V1.42578C10.9375 3.08594 11.6406 4.66797 12.876 5.78125L13.6768 6.50391C14.4189 7.17285 14.8389 8.12012 14.8389 9.11621V9.76562C14.8389 10.415 15.3613 10.9375 16.0107 10.9375C16.6602 10.9375 17.1826 10.415 17.1826 9.76562V9.12109C17.1826 7.46094 16.4795 5.87891 15.2441 4.76562L14.4434 4.04297C13.7061 3.37402 13.2812 2.42676 13.2812 1.42578V1.17188ZM0 15.625V21.875C0 23.5986 1.40137 25 3.125 25H21.875C23.5986 25 25 23.5986 25 21.875V15.625C25 13.9014 23.5986 12.5 21.875 12.5H13.54C12.8662 12.5 12.207 12.2803 11.665 11.875L7.5 8.75C6.68945 8.13965 5.70312 7.8125 4.6875 7.8125C2.09961 7.8125 0 9.91211 0 12.5V15.625ZM6.25 16.4062V21.0938C6.25 21.5234 5.89844 21.875 5.46875 21.875C5.03906 21.875 4.6875 21.5234 4.6875 21.0938V16.4062C4.6875 15.9766 5.03906 15.625 5.46875 15.625C5.89844 15.625 6.25 15.9766 6.25 16.4062ZM10.1562 15.625C10.5859 15.625 10.9375 15.9766 10.9375 16.4062V21.0938C10.9375 21.5234 10.5859 21.875 10.1562 21.875C9.72656 21.875 9.375 21.5234 9.375 21.0938V16.4062C9.375 15.9766 9.72656 15.625 10.1562 15.625ZM15.625 16.4062V21.0938C15.625 21.5234 15.2734 21.875 14.8438 21.875C14.4141 21.875 14.0625 21.5234 14.0625 21.0938V16.4062C14.0625 15.9766 14.4141 15.625 14.8438 15.625C15.2734 15.625 15.625 15.9766 15.625 16.4062ZM19.5312 15.625C19.9609 15.625 20.3125 15.9766 20.3125 16.4062V21.0938C20.3125 21.5234 19.9609 21.875 19.5312 21.875C19.1016 21.875 18.75 21.5234 18.75 21.0938V16.4062C18.75 15.9766 19.1016 15.625 19.5312 15.625ZM17.5781 0C16.9287 0 16.4062 0.522461 16.4062 1.17188V1.42578C16.4062 3.08594 17.1094 4.66797 18.3447 5.78125L19.1455 6.50391C19.8877 7.17285 20.3076 8.12012 20.3076 9.11621V9.76562C20.3076 10.415 20.8301 10.9375 21.4795 10.9375C22.1289 10.9375 22.6514 10.415 22.6514 9.76562V9.12109C22.6514 7.46094 21.9482 5.87891 20.7129 4.76562L19.9121 4.04297C19.1748 3.37402 18.75 2.42676 18.75 1.42578V1.17188C18.75 0.522461 18.2275 0 17.5781 0ZM3.125 6.25C4.84863 6.25 6.25 4.84863 6.25 3.125C6.25 1.40137 4.84863 0 3.125 0C1.40137 0 0 1.40137 0 3.125C0 4.84863 1.40137 6.25 3.125 6.25Z" fill="#F5F5F5"/>
</svg>
