<svg width="25" height="25" viewBox="0 0 25 25" fill="none" xmlns="http://www.w3.org/2000/svg">
<path d="M12.5 6.5C11.3133 6.5 10.1533 6.85189 9.16658 7.51118C8.17988 8.17047 7.41085 9.10754 6.95672 10.2039C6.5026 11.3003 6.38378 12.5067 6.61529 13.6705C6.8468 14.8344 7.41824 15.9035 8.25736 16.7426C9.09647 17.5818 10.1656 18.1532 11.3295 18.3847C12.4933 18.6162 13.6997 18.4974 14.7961 18.0433C15.8925 17.5892 16.8295 16.8201 17.4888 15.8334C18.1481 14.8467 18.5 13.6867 18.5 12.5C18.5 10.9087 17.8679 9.38258 16.7426 8.25736C15.6174 7.13214 14.0913 6.5 12.5 6.5ZM12.5 16.5C11.7089 16.5 10.9355 16.2654 10.2777 15.8259C9.61992 15.3864 9.10723 14.7616 8.80448 14.0307C8.50173 13.2998 8.42252 12.4956 8.57686 11.7196C8.7312 10.9437 9.11216 10.231 9.67157 9.67157C10.231 9.11216 10.9437 8.7312 11.7196 8.57686C12.4956 8.42252 13.2998 8.50173 14.0307 8.80448C14.7616 9.10723 15.3864 9.61992 15.8259 10.2777C16.2654 10.9355 16.5 11.7089 16.5 12.5C16.4967 13.5599 16.0742 14.5754 15.3248 15.3248C14.5754 16.0742 13.5599 16.4967 12.5 16.5ZM18 0H7C5.14348 0 3.36301 0.737498 2.05025 2.05025C0.737498 3.36301 0 5.14348 0 7V18C0 19.8565 0.737498 21.637 2.05025 22.9497C3.36301 24.2625 5.14348 25 7 25H18C19.8565 25 21.637 24.2625 22.9497 22.9497C24.2625 21.637 25 19.8565 25 18V7C25 5.14348 24.2625 3.36301 22.9497 2.05025C21.637 0.737498 19.8565 0 18 0ZM23 18C23 18.6566 22.8707 19.3068 22.6194 19.9134C22.3681 20.52 21.9998 21.0712 21.5355 21.5355C21.0712 21.9998 20.52 22.3681 19.9134 22.6194C19.3068 22.8707 18.6566 23 18 23H7C6.34339 23 5.69321 22.8707 5.08658 22.6194C4.47996 22.3681 3.92876 21.9998 3.46447 21.5355C3.00017 21.0712 2.63188 20.52 2.3806 19.9134C2.12933 19.3068 2 18.6566 2 18V7C2 5.67392 2.52678 4.40215 3.46447 3.46447C4.40215 2.52678 5.67392 2 7 2H18C18.6566 2 19.3068 2.12933 19.9134 2.3806C20.52 2.63188 21.0712 3.00017 21.5355 3.46447C21.9998 3.92876 22.3681 4.47996 22.6194 5.08658C22.8707 5.69321 23 6.34339 23 7V18ZM20.5 6C20.5 6.29667 20.412 6.58668 20.2472 6.83335C20.0824 7.08003 19.8481 7.27229 19.574 7.38582C19.2999 7.49935 18.9983 7.52906 18.7074 7.47118C18.4164 7.4133 18.1491 7.27044 17.9393 7.06066C17.7296 6.85088 17.5867 6.58361 17.5288 6.29264C17.4709 6.00166 17.5007 5.70006 17.6142 5.42597C17.7277 5.15189 17.92 4.91762 18.1666 4.7528C18.4133 4.58797 18.7033 4.5 19 4.5C19.3978 4.5 19.7794 4.65804 20.0607 4.93934C20.342 5.22064 20.5 5.60218 20.5 6Z" fill="#F5F5F5"/>
</svg>
