<svg width="25" height="30" viewBox="0 0 25 30" fill="none" xmlns="http://www.w3.org/2000/svg">
<path d="M12.5 15C13.3594 15 14.0953 14.706 14.7078 14.118C15.3193 13.531 15.625 12.825 15.625 12C15.625 11.175 15.3193 10.4685 14.7078 9.8805C14.0953 9.2935 13.3594 9 12.5 9C11.6406 9 10.9052 9.2935 10.2938 9.8805C9.68125 10.4685 9.375 11.175 9.375 12C9.375 12.825 9.68125 13.531 10.2938 14.118C10.9052 14.706 11.6406 15 12.5 15ZM12.5 30C8.30729 26.575 5.17604 23.3935 3.10625 20.4555C1.03542 17.5185 0 14.8 0 12.3C0 8.55 1.25677 5.5625 3.77031 3.3375C6.28281 1.1125 9.19271 0 12.5 0C15.8073 0 18.7172 1.1125 21.2297 3.3375C23.7432 5.5625 25 8.55 25 12.3C25 14.8 23.9651 17.5185 21.8953 20.4555C19.8245 23.3935 16.6927 26.575 12.5 30Z" fill="#F5F5F5"/>
</svg>
