<svg width="30" height="30" viewBox="0 0 30 30" fill="none" xmlns="http://www.w3.org/2000/svg">
<path d="M16.5 30H12.9545L13.6364 29.532C14.0909 29.219 14.5855 28.869 15.12 28.482C15.6536 28.094 16.1477 27.744 16.6023 27.432L17.2841 26.9625C19.125 26.8125 20.8241 26.2 22.3814 25.125C23.9377 24.05 25.1705 22.6125 26.0795 20.8125C24.125 20.6125 22.2727 20.069 20.5227 19.182C18.7727 18.294 17.2045 17.0875 15.8182 15.5625C14.4318 14.0375 13.3295 12.3125 12.5114 10.3875C11.6932 8.4625 11.2045 6.425 11.0455 4.275C9.29545 5.35 7.92636 6.831 6.93818 8.718C5.94909 10.606 5.45455 12.65 5.45455 14.85V15.3L5.04545 15.5055C4.77273 15.6435 4.47182 15.7875 4.14273 15.9375C3.81273 16.0875 3.51136 16.231 3.23864 16.368L2.82955 16.575C2.78409 16.3 2.75591 16.0125 2.745 15.7125C2.73318 15.4125 2.72727 15.125 2.72727 14.85C2.72727 11.2 3.78409 7.981 5.89773 5.193C8.01136 2.406 10.7045 0.675 13.9773 0C13.5682 2.475 13.6932 4.8935 14.3523 7.2555C15.0114 9.6185 16.1477 11.6875 17.7614 13.4625C19.375 15.2375 21.2559 16.4875 23.4041 17.2125C25.5514 17.9375 27.75 18.075 30 17.625C29.4091 21.225 27.8409 24.1875 25.2955 26.5125C22.75 28.8375 19.8182 30 16.5 30ZM6.81818 27H12.9545C13.5227 27 14.0055 26.781 14.4027 26.343C14.8009 25.906 15 25.375 15 24.75C15 24.125 14.8068 23.594 14.4205 23.157C14.0341 22.719 13.5682 22.5 13.0227 22.5H11.25L10.5682 20.7C10.25 19.875 9.75 19.219 9.06818 18.732C8.38636 18.244 7.63636 18 6.81818 18C5.68182 18 4.71591 18.4315 3.92045 19.2945C3.125 20.1565 2.72727 21.225 2.72727 22.5C2.72727 23.75 3.125 24.8125 3.92045 25.6875C4.71591 26.5625 5.68182 27 6.81818 27ZM6.81818 30C4.93182 30 3.32409 29.269 1.995 27.807C0.665 26.344 0 24.575 0 22.5C0 20.425 0.665 18.656 1.995 17.193C3.32409 15.731 4.93182 15 6.81818 15C8.18182 15 9.42636 15.406 10.5518 16.218C11.6764 17.031 12.5114 18.125 13.0568 19.5C14.3523 19.55 15.4545 20.081 16.3636 21.093C17.2727 22.106 17.7273 23.325 17.7273 24.75C17.7273 26.2 17.2614 27.4375 16.3295 28.4625C15.3977 29.4875 14.2727 30 12.9545 30H6.81818Z" fill="#F5F5F5"/>
</svg>
