<svg width="26" height="26" viewBox="0 0 26 26" fill="none" xmlns="http://www.w3.org/2000/svg">
<path d="M0 4.95238L9.1 13.619H0V17.3333H13L22.1 26L23.725 24.4524L1.625 3.40476L0 4.95238ZM24.05 13.619H26V17.3333H24.05V13.619ZM20.8 13.619H22.75V17.3333H20.8V13.619ZM21.905 3.56571C22.711 2.81048 23.205 1.77048 23.205 0.619048H21.255C21.255 1.85714 20.15 2.90952 18.85 2.90952V4.76667C21.762 4.76667 24.05 7.03238 24.05 9.80571V12.381H26V9.80571C26 7.04476 24.336 4.66762 21.905 3.56571ZM16.25 8.29524H18.239C19.604 8.29524 20.8 9.21143 20.8 10.8333V12.381H22.75V10.4124C22.75 8.18381 20.67 6.5 18.239 6.5H16.25C14.95 6.5 13.845 5.28667 13.845 4.02381C13.845 2.76095 14.95 1.85714 16.25 1.85714V0C15.095 0 13.9873 0.43698 13.1705 1.21481C12.3538 1.99264 11.895 3.0476 11.895 4.14762C11.895 5.24764 12.3538 6.3026 13.1705 7.08043C13.9873 7.85826 15.095 8.29524 16.25 8.29524ZM19.5 17.2467V13.619H15.691L19.5 17.2467Z" fill="#F5F5F5"/>
</svg>
