<svg width="30" height="30" viewBox="0 0 30 30" fill="none" xmlns="http://www.w3.org/2000/svg">
<path d="M16.5 7.5H12C11.6022 7.5 11.2206 7.65803 10.9393 7.93934C10.658 8.22064 10.5 8.60217 10.5 9V21C10.5 21.3978 10.658 21.7794 10.9393 22.0607C11.2206 22.342 11.6022 22.5 12 22.5C12.3978 22.5 12.7794 22.342 13.0607 22.0607C13.342 21.7794 13.5 21.3978 13.5 21V18H16.5C17.6935 18 18.8381 17.5259 19.682 16.682C20.5259 15.8381 21 14.6935 21 13.5V12C21 10.8065 20.5259 9.66193 19.682 8.81802C18.8381 7.9741 17.6935 7.5 16.5 7.5ZM18 13.5C18 13.8978 17.842 14.2794 17.5607 14.5607C17.2794 14.842 16.8978 15 16.5 15H13.5V10.5H16.5C16.8978 10.5 17.2794 10.658 17.5607 10.9393C17.842 11.2206 18 11.6022 18 12V13.5ZM15 0C12.0333 0 9.13319 0.879734 6.66645 2.52796C4.19972 4.17618 2.27713 6.51885 1.14181 9.25974C0.00649926 12.0006 -0.290551 15.0166 0.288228 17.9263C0.867006 20.8361 2.29562 23.5088 4.3934 25.6066C6.49119 27.7044 9.16394 29.133 12.0737 29.7118C14.9834 30.2905 17.9994 29.9935 20.7403 28.8582C23.4811 27.7229 25.8238 25.8003 27.472 23.3335C29.1203 20.8668 30 17.9667 30 15C30 13.0302 29.612 11.0796 28.8582 9.25974C28.1044 7.43986 26.9995 5.78628 25.6066 4.3934C24.2137 3.00052 22.5601 1.89563 20.7403 1.14181C18.9204 0.387986 16.9698 0 15 0ZM15 27C12.6266 27 10.3066 26.2962 8.33316 24.9776C6.35977 23.659 4.8217 21.7849 3.91345 19.5922C3.0052 17.3995 2.76756 14.9867 3.23058 12.6589C3.69361 10.3311 4.83649 8.19295 6.51472 6.51472C8.19295 4.83649 10.3312 3.6936 12.6589 3.23058C14.9867 2.76755 17.3995 3.00519 19.5922 3.91344C21.7849 4.8217 23.6591 6.35977 24.9776 8.33315C26.2962 10.3065 27 12.6266 27 15C27 18.1826 25.7357 21.2348 23.4853 23.4853C21.2348 25.7357 18.1826 27 15 27Z" fill="#DDDDDD"/>
</svg>
