<svg width="35" height="30" viewBox="0 0 35 30" fill="none" xmlns="http://www.w3.org/2000/svg">
<path d="M24.5378 21.5368C26.0891 20.6741 25.8881 17.3495 24.0902 14.1059C23.3189 12.7093 22.3707 11.5784 21.4224 10.7877C20.2885 11.6297 18.915 12.0863 17.503 12.0907C16.0888 12.0876 14.7129 11.6309 13.5772 10.7877C12.6289 11.5784 11.6832 12.7106 10.9094 14.1059C9.11027 17.3483 8.91176 20.6741 10.4669 21.5368C11.1598 21.9315 11.8906 21.6355 12.6441 20.9094C12.503 21.6917 12.4324 22.4851 12.433 23.2801C12.433 26.9968 13.8743 30 15.6482 30C16.7178 30 17.2476 28.9057 17.5017 27.2321C17.7546 28.8943 18.2856 30 19.3476 30C21.1139 30 22.5667 26.9955 22.5667 23.2801C22.5667 22.4451 22.4883 21.6482 22.3542 20.9106C23.1129 21.638 23.8411 21.9391 24.5365 21.5394L24.5378 21.5368ZM17.5004 10.8257C18.2178 10.8364 18.9301 10.7042 19.5959 10.4369C20.2617 10.1696 20.8678 9.77248 21.3788 9.26861C21.8897 8.76475 22.2955 8.16423 22.5723 7.502C22.8492 6.83977 22.9916 6.12907 22.9913 5.41124C22.9911 4.69342 22.8482 3.98281 22.5708 3.32078C22.2935 2.65874 21.8874 2.05851 21.3761 1.555C20.8647 1.0515 20.2584 0.654776 19.5924 0.387929C18.9264 0.121083 18.214 -0.0105604 17.4966 0.000661576C16.0763 0.0228816 14.7216 0.603157 13.7252 1.61619C12.7288 2.62921 12.1706 3.99371 12.1711 5.41504C12.1716 6.83636 12.7308 8.20047 13.7279 9.2128C14.725 10.2251 16.0801 10.8044 17.5004 10.8257V10.8257ZM28.3662 14.259C29.5216 14.2252 30.6183 13.7423 31.4236 12.9126C32.2288 12.083 32.6793 10.972 32.6793 9.81553C32.6793 8.65903 32.2288 7.54806 31.4236 6.71843C30.6183 5.88881 29.5216 5.40584 28.3662 5.37205C27.188 5.37222 26.0582 5.84067 25.2252 6.67434C24.3923 7.50801 23.9244 8.63861 23.9246 9.81743C23.9247 10.9963 24.3929 12.1267 25.2261 12.9602C26.0593 13.7936 27.1893 14.2617 28.3675 14.2615L28.3662 14.259ZM33.7776 16.9536C33.1429 15.8049 32.3666 14.8764 31.5877 14.2274C30.6561 14.918 29.5282 15.2926 28.3687 15.2964C27.4129 15.2964 26.5228 15.0345 25.7439 14.6006C26.3711 15.9833 26.7592 17.3837 26.8313 18.6361C26.9501 20.5539 26.3508 21.9758 25.1522 22.64C24.8954 22.7812 24.6161 22.877 24.3266 22.9233C24.2546 23.4192 24.2052 23.9354 24.2052 24.4793C24.2052 27.5319 25.3874 29.9975 26.8452 29.9975C27.7226 29.9975 28.1601 29.0993 28.3675 27.7254C28.5735 29.0917 29.0097 29.9975 29.8847 29.9975C31.3323 29.9975 32.5271 27.5306 32.5271 24.4819C32.5271 23.7949 32.4601 23.1409 32.3501 22.5337C32.9722 23.1321 33.5715 23.3787 34.143 23.0498C35.4162 22.3414 35.2518 19.6114 33.7763 16.9523L33.7776 16.9536ZM6.63468 14.259C7.5128 14.2585 8.37105 13.9975 9.10093 13.509C9.83081 13.0205 10.3996 12.3265 10.7352 11.5146C11.0709 10.7027 11.1585 9.80952 10.9869 8.94786C10.8153 8.0862 10.3922 7.29479 9.77108 6.6737C9.14998 6.05261 8.35878 5.62973 7.4975 5.4585C6.63622 5.28728 5.74354 5.37541 4.93231 5.71175C4.12109 6.0481 3.42775 6.61755 2.93995 7.34811C2.45214 8.07868 2.19179 8.93756 2.19178 9.81617C2.19212 10.9951 2.66032 12.1256 3.49345 12.9592C4.32658 13.7927 5.45646 14.2612 6.63468 14.2615V14.259ZM9.83979 22.6362C7.82696 21.5166 7.64236 18.1781 9.26325 14.598C8.46207 15.0531 7.55723 15.2941 6.63595 15.2976C5.42724 15.2976 4.31967 14.8928 3.41187 14.2274C2.6343 14.8751 1.85926 15.8036 1.22203 16.951C-0.253453 19.6127 -0.415288 22.3427 0.859169 23.0486C1.42812 23.3749 2.02868 23.1308 2.64695 22.535C2.53339 23.1773 2.47627 23.8283 2.47626 24.4806C2.47626 27.5319 3.65842 29.9962 5.11621 29.9962C5.99366 29.9962 6.43112 29.098 6.63848 27.7254C6.84709 29.0917 7.28329 29.9975 8.15569 29.9975C9.60589 29.9975 10.7982 27.5306 10.7982 24.4819C10.7982 23.9341 10.7476 23.4167 10.6755 22.9208C10.3829 22.8746 10.1005 22.7779 9.84105 22.6349L9.83979 22.6362Z" fill="#F5F5F5"/>
</svg>
