<svg width="30" height="30" viewBox="0 0 30 30" fill="none" xmlns="http://www.w3.org/2000/svg">
<path d="M19.9839 7.38091L19.9839 7.38053C20.0912 6.03227 19.6463 4.83905 18.7568 3.94719L19.9839 7.38091ZM19.9839 7.38091C19.7487 10.3402 17.3376 12.4999 15 12.4999C12.6603 12.4999 10.2473 10.338 10.0157 7.38356L19.9839 7.38091ZM27.4412 27.4998C26.9237 25.2397 25.5066 23.275 23.1461 21.8135L27.4412 27.4998ZM27.4412 27.4998H2.55891C3.07657 25.24 4.49366 23.2754 6.85424 21.8133L27.4412 27.4998ZM15 19.6428C11.9649 19.6428 9.07078 20.4419 6.85497 21.8128L15 19.6428ZM15 19.6428C18.0347 19.6428 20.9291 20.4424 23.1454 21.813L15 19.6428ZM15 2.5C16.5628 2.5 17.8654 3.05363 18.7567 3.94716L11.2305 3.93504C12.1092 3.05553 13.4156 2.5 15 2.5ZM10.0157 7.38266C9.90835 6.00129 10.3591 4.80754 11.2303 3.93519L10.0157 7.38266Z" fill="#171717" stroke="black" stroke-width="5"/>
</svg>
