<svg width="436" height="43" viewBox="0 0 436 43" fill="none" xmlns="http://www.w3.org/2000/svg">
<path d="M89.816 10.7547L90.1793 9.30132L89.2346 8.35667L86.546 9.95532L84.7293 9.30132L83.7846 6.17667L82.3313 6.32199L82.5493 7.92066L82.186 8.21132L81.2413 6.83066L81.6046 5.59532L80.9506 3.41532L78.916 1.67132H77.5353L76.3 0L75.21 0.581324L76.736 2.32532V2.90667L80.9506 9.30132L80.8053 11.336L80.1513 13.6613L78.48 14.8967V15.8413L81.096 17.0767L81.75 18.1667L80.1513 21.146L80.66 21.8H81.6046L82.0406 22.3813L83.276 21.6547L85.3106 18.3847L86.4006 15.8413L86.11 15.26L86.6913 13.8067H87.854L87.9993 14.4607L88.944 14.0247V12.5713L89.6706 12.1353L89.816 10.7547Z" fill="#F5F5F5"/>
<path d="M68.3794 6.17664C68.3794 5.37731 68.67 4.79598 69.324 4.79598C69.978 4.79598 70.2687 5.23197 70.2687 6.17664V11.336C70.2687 12.1353 69.978 12.7166 69.324 12.7166C68.67 12.7166 68.3794 12.2806 68.3794 11.336V6.17664ZM63.3654 3.70598V13.952L66.6354 17.0766H72.0854L75.3554 13.952V3.70598L72.0854 0.581299H66.6354L63.3654 3.70598Z" fill="#F5F5F5"/>
<path d="M71.1407 37.496L72.0853 37.2054V36.4061L73.1753 33.9354L74.12 31.2467L75.3553 30.1567L76.5907 30.52L77.2447 30.3747L77.39 29.7207L76.5907 28.7761L76.8813 28.1947L78.1893 26.5961L78.3347 25.5061L79.0613 25.2154L79.8606 23.3261L79.7153 22.7447L79.8606 22.0907L79.7153 21.8L79.8606 21.0007L78.916 20.71L77.39 21.6547V20.8554L76.8813 20.5647L76.5907 20.71V20.5647L76.736 20.0561L76.8813 19.7654L76.736 19.2567L75.0647 20.71L74.2653 23.3261L73.1753 24.1254L72.5213 26.5961L67.8707 31.1014L66.3447 31.61L64.31 34.5167L62.9293 37.8594L63.656 38.9494L65.2547 38.4407L65.6907 39.0947H66.6353V39.5307L68.1613 39.6761L69.76 38.9494L71.1407 37.496Z" fill="#F5F5F5"/>
<path d="M88.4355 33.4266C88.4355 34.226 88.1448 34.8073 87.4908 34.8073C86.8368 34.8073 86.5461 34.3713 86.5461 33.4266V28.2673C86.5461 27.468 86.8368 26.8866 87.4908 26.8866C88.1448 26.8866 88.4355 27.3226 88.4355 28.2673V33.4266ZM93.4495 36.1153V25.8693L90.1795 22.7446H84.7295L81.4595 25.8693V36.1153L84.7295 39.24H90.1795L93.4495 36.1153Z" fill="#F5F5F5"/>
<path d="M65.6908 39.8214L65.2548 40.0394L65.4001 40.766L64.4554 41.856L64.7461 42.0013L66.6354 41.5653L66.9261 40.766L66.6354 40.6207L65.6908 39.8214Z" fill="#F5F5F5"/>
<path d="M3.706 39.24H12.426V0.436035H7.92067L4.94133 3.41535H0V11.0454H3.706V39.24Z" fill="#F5F5F5"/>
<path d="M21.2914 0.436035L15.8414 5.88603V33.79L21.2914 39.24H31.1014L36.5514 33.79V5.88603L31.1014 0.436035H21.2914ZM27.8314 30.8107C27.8314 31.7554 27.1774 32.3367 26.4508 32.3367H25.7968C24.9974 32.3367 24.4161 31.6827 24.4161 30.8107V9.01069C24.4161 8.06603 25.0701 7.48469 25.7968 7.48469H26.4508C27.2501 7.48469 27.8314 8.13869 27.8314 9.01069V30.8107Z" fill="#F5F5F5"/>
<path d="M55.0813 39.24L60.5313 33.79V5.88603L55.0813 0.436035H45.2713L39.8213 5.88603V33.79L45.2713 39.24H55.0813ZM48.5413 8.86535C48.5413 7.92068 49.1953 7.33937 49.922 7.33937H50.576C51.3753 7.33937 51.9566 7.99335 51.9566 8.86535V30.6653C51.9566 31.61 51.3026 32.1914 50.576 32.1914H49.922C49.1226 32.1914 48.5413 31.5373 48.5413 30.6653V8.86535Z" fill="#F5F5F5"/>
<path d="M103.405 0.436035V39.24H112.125V25.506H118.519L123.969 20.056V5.88603L118.519 0.436035H103.405ZM115.249 17.2947C115.249 18.2394 114.595 18.6754 113.869 18.6754H112.125V7.48469H113.869C114.668 7.48469 115.249 7.92068 115.249 8.86535V17.2947Z" fill="#F5F5F5"/>
<path d="M126.731 0.436035V33.79L132.181 39.24H141.991L147.441 33.79V0.436035H138.721V30.8107C138.721 31.7554 138.067 32.3367 137.34 32.3367H136.686C135.887 32.3367 135.305 31.6827 135.305 30.8107V0.436035H126.731Z" fill="#F5F5F5"/>
<path d="M171.275 5.88603L165.825 0.436035H150.711V39.24H159.431V24.416H161.175C161.974 24.416 162.555 24.852 162.555 25.7967V35.4614L162.991 39.1674H171.711L171.275 34.9527V24.3434L167.351 20.6374L171.275 16.9314V5.88603ZM162.555 15.5507C162.555 16.4954 161.901 16.9314 161.175 16.9314H159.431V7.41202H161.175C161.974 7.41202 162.555 7.84803 162.555 8.7927V15.5507Z" fill="#F5F5F5"/>
<path d="M174.763 39.24H191.113V31.7553H183.338V23.326H190.459V15.8414H183.338V7.92069H191.113V0.436035H174.763V39.24Z" fill="#F5F5F5"/>
<path d="M212.913 16.2047H212.405L208.844 0.436035H200.56V39.24H208.699V22.5267H209.135L213.495 39.24H220.979V0.436035H212.913V16.2047Z" fill="#F5F5F5"/>
<path d="M224.249 39.24H240.817V31.7553H232.969V23.326H240.163V15.8414H232.969V7.92069H240.817V0.436035H224.249V39.24Z" fill="#F5F5F5"/>
<path d="M283.473 7.92069H291.757L283.473 32.3367V39.24H301.203V31.7553H293.137L301.203 7.48469V0.436035H283.473V7.92069Z" fill="#F5F5F5"/>
<path d="M304.037 39.24H320.387V31.7553H312.757V23.326H319.733V15.8414H312.757V7.92069H320.387V0.436035H304.037V39.24Z" fill="#F5F5F5"/>
<path d="M348.291 0.436035V39.24H363.842V31.7553H356.866V0.436035H348.291Z" fill="#F5F5F5"/>
<path d="M404.027 16.2047H403.591L399.957 0.436035H391.746V39.24H399.812V22.5267H400.321L404.681 39.24H412.165V0.436035H404.027V16.2047Z" fill="#F5F5F5"/>
<path d="M415.435 39.24H430.55L436 33.79V5.88603L430.55 0.436035H415.435V39.24ZM424.155 7.48469H426.045C426.844 7.48469 427.425 7.92068 427.425 8.86535V30.956C427.425 31.9007 426.771 32.3367 426.045 32.3367H424.155V7.48469Z" fill="#F5F5F5"/>
<path d="M264.143 18.3847H263.707L261.818 0.436035H255.569L253.679 18.3847H253.243L251.354 0.436035H243.143L248.084 39.24H255.859L258.257 22.3814H258.548L260.728 39.24H268.649L273.663 0.436035H266.033L264.143 18.3847Z" fill="#F5F5F5"/>
<path d="M328.671 0.436035L322.422 39.24H330.851L331.651 32.9907H336.81L337.609 39.24H346.329L340.08 0.436035C340.007 0.436035 328.671 0.436035 328.671 0.436035ZM332.377 26.0147L333.903 13.3707H334.194L335.72 26.0147H332.377Z" fill="#F5F5F5"/>
<path d="M372.126 0.436035L365.877 39.24H374.306L375.105 32.9907H380.265L381.064 39.24H389.784L383.535 0.436035C383.462 0.436035 372.126 0.436035 372.126 0.436035ZM375.832 26.0147L377.358 13.3707H377.649L379.175 26.0147H375.832Z" fill="#F5F5F5"/>
</svg>
