<svg width="25" height="20" viewBox="0 0 25 20" fill="none" xmlns="http://www.w3.org/2000/svg">
<path d="M24.9626 2.88048C24.9272 2.80033 24.8665 2.73167 24.7882 2.68326C24.71 2.63486 24.6177 2.60891 24.5233 2.60874H20.6289C20.1967 1.83321 19.5415 1.18039 18.7338 0.720677C17.9262 0.260965 16.9968 0.0118011 16.0459 4.99154e-05C14.6518 -0.00575055 13.312 0.494194 12.3196 1.39049C11.3272 2.28679 10.763 3.50647 10.7505 4.78265V6.00003C5.51442 4.9783 1.15699 1.03266 1.10949 1.00005C1.0499 0.941995 0.973646 0.90049 0.88947 0.88029C0.805294 0.860091 0.716605 0.862015 0.633568 0.885841C0.550532 0.909668 0.476509 0.954432 0.419987 1.015C0.363465 1.07557 0.32673 1.1495 0.313994 1.22831C-0.707094 6.31525 0.955143 9.71742 2.53427 11.6739C3.41887 12.7857 4.52213 13.7367 5.78751 14.4783C3.92342 16.6957 0.646442 17.837 0.610823 17.8587C0.544107 17.8815 0.483856 17.9178 0.434531 17.9649C0.385205 18.0119 0.348067 18.0685 0.325868 18.1304C0.303353 18.192 0.296995 18.2575 0.307309 18.3217C0.317623 18.3859 0.344319 18.447 0.385233 18.5C0.40898 18.5435 0.717681 18.9348 1.51318 19.3043C2.5224 19.7609 3.87593 20 5.5263 20C13.7069 20 20.5458 14.1848 21.1513 6.73916L24.8557 3.34787C24.9242 3.28968 24.9713 3.21346 24.9904 3.12974C25.0096 3.04602 24.9998 2.95892 24.9626 2.88048ZM20.3558 6.23916C20.2736 6.31518 20.2232 6.4152 20.2134 6.52177C19.7266 13.5978 13.2676 19.1304 5.5263 19.1304C3.41288 19.1304 2.24931 18.7065 1.66753 18.3804C2.90234 17.8587 5.40757 16.6087 6.86796 14.587C6.90802 14.5378 6.93527 14.4809 6.94762 14.4206C6.95996 14.3603 6.95708 14.2983 6.9392 14.2391C6.92098 14.1789 6.88945 14.1228 6.84656 14.0742C6.80367 14.0255 6.75034 13.9855 6.68986 13.9565C6.66612 13.9457 4.87328 13.1087 3.29415 11.1522C1.32321 8.69568 0.587076 5.68482 1.10949 2.17396C2.62925 3.40222 6.54739 6.25003 11.1423 6.94568C11.2106 6.95696 11.2807 6.95505 11.3482 6.94007C11.4157 6.9251 11.479 6.89739 11.5341 6.85873C11.5865 6.81672 11.6285 6.76491 11.6572 6.70678C11.6859 6.64864 11.7006 6.58556 11.7003 6.52177V4.78265C11.7128 3.73898 12.1753 2.74213 12.987 2.00921C13.7987 1.27629 14.8939 0.866683 16.034 0.869613C16.8553 0.881317 17.6557 1.10883 18.3398 1.52507C19.0239 1.9413 19.5629 2.52873 19.8928 3.21743C19.9287 3.29642 19.9899 3.36361 20.0683 3.41017C20.1467 3.45673 20.2387 3.48048 20.3321 3.4783H23.3716L20.3558 6.23916Z" fill="#F5F5F5"/>
</svg>
