<svg width="30" height="23" viewBox="0 0 30 23" fill="none" xmlns="http://www.w3.org/2000/svg">
<path d="M0 6.73252L2.72727 9.69024C9.50455 2.3403 20.4955 2.3403 27.2727 9.69024L30 6.73252C21.7227 -2.24417 8.29091 -2.24417 0 6.73252ZM10.9091 18.5634L15 23L19.0909 18.5634C18.5542 17.9798 17.9166 17.5168 17.2146 17.2008C16.5126 16.8849 15.76 16.7223 15 16.7223C14.24 16.7223 13.4874 16.8849 12.7854 17.2008C12.0834 17.5168 11.4458 17.9798 10.9091 18.5634ZM5.45455 12.648L8.18182 15.6057C9.99063 13.6457 12.443 12.5447 15 12.5447C17.557 12.5447 20.0094 13.6457 21.8182 15.6057L24.5455 12.648C19.2818 6.93956 10.7318 6.93956 5.45455 12.648Z" fill="#F5F5F5"/>
</svg>
