<svg width="27" height="22" viewBox="0 0 27 22" fill="none" xmlns="http://www.w3.org/2000/svg">
<path d="M16 11.0005L11.625 13.8174V8.18359L16 11.0005Z" fill="#F5F5F5" stroke="#F5F5F5" stroke-width="2" stroke-linecap="round" stroke-linejoin="round"/>
<path d="M1 11.9958V10.0028C1 5.92535 1 3.88592 2.13125 2.57465C3.26375 1.26197 5.04625 1.20563 8.61 1.09155C10.2975 1.03803 12.0225 1 13.5 1C14.9762 1 16.7012 1.03803 18.39 1.09155C21.9537 1.20563 23.7362 1.26197 24.8675 2.57465C26 3.88592 26 5.92676 26 10.0028V11.9958C26 16.0746 26 18.1127 24.8687 19.4254C23.7362 20.7366 21.955 20.7944 18.39 20.907C16.7025 20.962 14.9775 21 13.5 21C11.8697 20.9945 10.2395 20.9635 8.61 20.907C5.04625 20.7944 3.26375 20.738 2.13125 19.4254C1 18.1127 1 16.0732 1 11.9972V11.9958Z" stroke="#F5F5F5" stroke-width="2"/>
</svg>
